<?xml version="1.0" standalone="no"?>
<!DOCTYPE svg PUBLIC "-//W3C//DTD SVG 20010904//EN"
 "http://www.w3.org/TR/2001/REC-SVG-20010904/DTD/svg10.dtd">
<svg version="1.0" xmlns="http://www.w3.org/2000/svg"
 width="500.000000pt" height="500.000000pt" viewBox="0 0 500.000000 500.000000"
 preserveAspectRatio="xMidYMid meet">

<g transform="translate(0.000000,500.000000) scale(0.100000,-0.100000)"
fill="#000000" stroke="none">
<path d="M2205 3861 c-216 -62 -373 -252 -392 -475 -21 -250 131 -480 371
-564 102 -36 242 -36 342 0 273 97 425 372 356 646 -27 106 -70 181 -146 257
-107 105 -234 156 -387 154 -47 0 -110 -8 -144 -18z m216 -460 c47 -47 34
-117 -27 -146 -95 -45 -179 72 -105 146 22 21 39 29 66 29 27 0 44 -8 66 -29z"/>
<path d="M2340 3340 c0 -15 5 -20 18 -18 9 2 17 10 17 18 0 8 -8 16 -17 18
-13 2 -18 -3 -18 -18z"/>
<path d="M3470 3817 c0 -7 7 -23 16 -35 8 -12 10 -22 5 -22 -6 0 -11 -9 -11
-20 0 -19 7 -20 105 -20 98 0 105 1 105 20 0 17 -8 19 -77 22 -77 3 -78 3 -93
35 -15 32 -50 46 -50 20z"/>
<path d="M3511 3644 c-60 -50 -46 -140 26 -171 77 -32 153 15 153 94 0 37 -5
50 -32 76 -33 32 -33 32 -36 9 -2 -15 4 -32 17 -43 26 -25 27 -53 1 -79 -40
-40 -50 -27 -50 60 0 78 -1 80 -24 80 -14 0 -38 -12 -55 -26z m49 -74 c0 -62
-7 -71 -34 -44 -21 20 -20 63 1 86 26 29 33 21 33 -42z"/>
<path d="M3480 3410 c0 -17 -7 -20 -40 -20 -33 0 -40 -3 -40 -20 0 -16 7 -20
36 -20 27 0 37 -5 41 -20 3 -11 11 -20 18 -20 7 0 15 9 18 20 5 18 14 20 79
20 82 0 98 9 98 52 0 21 -5 28 -20 28 -13 0 -20 -7 -20 -20 0 -18 -7 -20 -70
-20 -63 0 -70 2 -70 20 0 11 -7 20 -15 20 -8 0 -15 -9 -15 -20z"/>
<path d="M3396 3271 c-10 -16 5 -41 24 -41 19 0 30 17 23 38 -5 14 -39 16 -47
3z"/>
<path d="M3480 3260 c0 -19 7 -20 105 -20 98 0 105 1 105 20 0 19 -7 20 -105
20 -98 0 -105 -1 -105 -20z"/>
<path d="M3480 3160 c0 -18 7 -20 73 -20 76 0 107 -15 107 -51 0 -30 -24 -39
-102 -39 -71 0 -78 -2 -78 -20 0 -18 7 -20 88 -20 73 0 92 3 105 18 20 22 22
83 5 100 -9 9 -9 12 0 12 7 0 12 9 12 20 0 19 -7 20 -105 20 -98 0 -105 -1
-105 -20z"/>
<path d="M2907 3060 c-25 -53 -57 -99 -100 -143 -123 -127 -249 -185 -417
-194 -169 -9 -304 35 -432 141 l-66 55 -52 -132 c-28 -73 -181 -463 -339 -867
l-288 -735 820 -3 c451 -1 822 0 825 2 2 3 -44 139 -103 303 -59 164 -112 313
-118 331 l-10 32 -166 1 c-91 1 -176 0 -188 -1 -13 -1 -23 2 -23 6 0 25 215
583 221 572 3 -7 100 -272 214 -588 115 -316 215 -594 224 -618 l16 -42 402 0
c230 0 403 4 403 9 0 5 -99 258 -221 562 -121 305 -295 742 -386 972 -92 229
-169 417 -172 416 -3 0 -23 -36 -44 -79z"/>
<path d="M3476 2948 c5 -13 7 -38 6 -55 l-2 -33 105 0 c98 0 105 1 105 20 0
17 -7 20 -44 20 -75 0 -107 11 -125 41 -20 36 -56 41 -45 7z"/>
<path d="M3430 2792 c-55 -56 -46 -155 19 -199 27 -18 48 -23 99 -23 61 0 66
2 103 39 36 36 39 43 39 96 0 49 -4 60 -29 86 -37 36 -61 38 -61 4 0 -14 4
-25 9 -25 43 0 56 -93 17 -129 -50 -47 -153 -35 -182 21 -18 36 -11 84 17 101
20 12 27 57 8 57 -6 0 -23 -13 -39 -28z"/>
</g>
</svg>
