<?xml version="1.0" encoding="UTF-8"?>
<svg version="1.1" xmlns="http://www.w3.org/2000/svg" width="272" height="311">
<path d="M0 0 C2.26230763 2.19375286 4.46633641 4.33110286 6.43359375 6.796875 C15.57504006 18.19518711 29.44852532 26.22109111 44 28 C62.46887305 29.09496671 79.20689472 26.09512736 93.5 13.5 C97.2693628 9.87369882 100.71267804 6.06589822 104 2 C107.16711041 4.62362433 108.25415324 7.60931508 109.74194336 11.38989258 C110.12955668 12.36525325 110.12955668 12.36525325 110.52500057 13.36031818 C111.38733836 15.53554728 112.23848996 17.7149822 113.08984375 19.89453125 C113.7033136 21.4479456 114.31751739 23.00107029 114.93240356 24.55392456 C116.25137289 27.8889876 117.56555185 31.22588294 118.87600708 34.56430054 C120.9498567 39.84713159 123.0342317 45.12576569 125.12084961 50.40356445 C125.83047941 52.19876841 126.5400893 53.99398024 127.24967957 55.78919983 C127.78014421 57.13122813 127.78014421 57.13122813 128.3213253 58.50036812 C129.40535262 61.24406481 130.48832686 63.98817497 131.57099915 66.73240662 C138.3908166 84.01547301 145.28248723 101.26941679 152.1927681 118.51647568 C153.31857236 121.32670769 154.44373118 124.1371978 155.56875706 126.94774151 C156.11143029 128.3033889 156.65419202 129.65900086 157.19704342 131.01457691 C158.51696815 134.31076365 159.83576357 137.60739243 161.15202332 140.90504456 C163.72613188 147.34973802 166.31639547 153.78713347 168.94196033 160.21106625 C170.26862729 163.45984056 171.58818953 166.71147797 172.90707207 169.96341896 C173.54573228 171.5326144 174.18779816 173.10042838 174.83339119 174.66678429 C175.72748604 176.8367372 176.60992807 179.01109342 177.48999023 181.18676758 C177.76027227 181.83418474 178.03055431 182.48160191 178.30902672 183.14863777 C180.1138748 187.65837559 180.1138748 187.65837559 179 191 C152.27 191 125.54 191 98 191 C93.5004201 180.87594523 93.5004201 180.87594523 92.22680664 177.30883789 C91.93374634 176.49356628 91.64068604 175.67829468 91.33874512 174.83831787 C91.03231079 173.97514954 90.72587646 173.1119812 90.41015625 172.22265625 C90.07302612 171.28222473 89.735896 170.34179321 89.3885498 169.37286377 C88.65870051 167.33590266 87.9303667 165.29839803 87.20339966 163.26040649 C85.63904971 158.87558191 84.06669206 154.49364207 82.49485779 150.11149597 C81.65640434 147.77374803 80.81832788 145.43586484 79.98060608 143.09785461 C75.32966392 130.11930697 70.65134903 117.15069737 65.96261597 104.1857605 C65.03220084 101.61270989 64.1029766 99.03923418 63.17483521 96.46536255 C61.86981182 92.84729306 60.56217659 89.23017771 59.25390625 85.61328125 C58.86714722 84.5393512 58.48038818 83.46542114 58.08190918 82.35894775 C56.19979606 77.16500526 54.24566407 72.04796851 52 67 C51.57178955 68.14364014 51.1435791 69.28728027 50.70239258 70.46557617 C49.09082971 74.76917863 47.47850474 79.07249524 45.8659668 83.37573242 C45.1724043 85.22689331 44.47903973 87.07812837 43.78588867 88.92944336 C42.78097633 91.61332117 41.77531684 94.29691808 40.76953125 96.98046875 C40.46723099 97.78832321 40.16493073 98.59617767 39.85346985 99.42851257 C37.27597456 106.30204971 34.6355618 113.14753931 32 120 C43.88 120.33 55.76 120.66 68 121 C73.6302012 134.51248288 73.6302012 134.51248288 75.41943359 139.36352539 C75.82269867 140.4540773 76.22596375 141.54462921 76.64144897 142.66822815 C77.05625519 143.79993942 77.4710614 144.9316507 77.8984375 146.09765625 C78.55726425 147.89268837 78.55726425 147.89268837 79.22940063 149.72398376 C80.1468641 152.22843291 81.06290938 154.73335485 81.97705078 157.23901367 C83.14915778 160.44976431 84.33246769 163.65627075 85.51816368 166.86202335 C86.65291053 169.93764824 87.77479183 173.0179618 88.8984375 176.09765625 C89.3253891 177.2475856 89.7523407 178.39751495 90.19223022 179.58229065 C90.57658234 180.64447311 90.96093445 181.70665558 91.35693359 182.80102539 C91.69937103 183.73523819 92.04180847 184.66945099 92.3946228 185.63197327 C93 188 93 188 92 191 C37.55 191 -16.9 191 -73 191 C-74.25831296 187.22506112 -73.55540566 186.19260515 -72.10546875 182.54296875 C-71.42846924 180.81711548 -71.42846924 180.81711548 -70.73779297 179.05639648 C-70.22109831 177.76673641 -69.70433122 176.47710535 -69.1875 175.1875 C-68.64635587 173.81685929 -68.1061834 172.44583463 -67.56689453 171.07446289 C-66.37148243 168.03809304 -65.17094683 165.00381183 -63.96728516 161.97070312 C-61.90298916 156.76297957 -59.86185082 151.54632938 -57.82421875 146.328125 C-57.09318252 144.45629798 -56.36214407 142.58447182 -55.63110352 140.71264648 C-55.26155548 139.76638397 -54.89200745 138.82012146 -54.51126099 137.84518433 C-52.57555667 132.89172983 -50.63533091 127.94004737 -48.6953125 122.98828125 C-45.66682263 115.25746633 -42.64052681 107.5257994 -39.6171875 99.79296875 C-35.509737 89.2876486 -31.39827806 78.78390228 -27.28479004 68.28094482 C-26.14656582 65.37428245 -25.00868924 62.46748422 -23.87093353 59.56063843 C-21.3659668 53.16085245 -18.85934061 46.76172011 -16.35027313 40.36354065 C-15.12381185 37.23594224 -13.89822474 34.10800879 -12.6739502 30.97955322 C-11.30800346 27.48951396 -9.93945918 24.00050369 -8.5703125 20.51171875 C-7.9652034 18.96315941 -7.9652034 18.96315941 -7.34786987 17.38331604 C-5.04292961 11.51914216 -2.61774695 5.73165463 0 0 Z " fill="#363642" transform="translate(82,103)"/>
<path d="M0 0 C11.88469541 10.24262395 19.75131676 23.9910647 21.04296875 39.7734375 C21.04296875 48.4588258 20.26675494 56.6729917 17.04296875 64.7734375 C16.73875 65.56878906 16.43453125 66.36414063 16.12109375 67.18359375 C9.70871426 81.8437802 -2.8464246 90.97189834 -17.2578125 96.79296875 C-29.7010795 101.31288195 -46.0435364 100.1537255 -57.95703125 94.7734375 C-73.35571578 87.21936584 -83.12789475 74.87451607 -88.640625 58.77734375 C-92.68945839 44.00608263 -89.71313011 29.00579412 -82.7578125 15.69921875 C-79.74739682 10.80810955 -76.0299765 6.79592148 -71.95703125 2.7734375 C-71.40402344 2.19851562 -70.85101563 1.62359375 -70.28125 1.03125 C-51.49744664 -16.96018448 -19.68800251 -14.82451972 0 0 Z " fill="#363642" transform="translate(169.95703125,27.2265625)"/>
<path d="M0 0 C1.90389849 2.85584773 2.69462177 4.9311762 3.625 8.1875 C3.88539063 9.08855469 4.14578125 9.98960937 4.4140625 10.91796875 C4.60742188 11.60503906 4.80078125 12.29210937 5 13 C4 14 4 14 1.30008602 14.12304783 C0.08424108 14.12212604 -1.13160387 14.12120424 -2.3842926 14.12025452 C-3.05893317 14.12110894 -3.73357373 14.12196337 -4.42865795 14.12284368 C-6.70580162 14.12450039 -8.9828728 14.11897404 -11.26000977 14.11352539 C-12.88575234 14.11324353 -14.51149505 14.11340122 -16.13723755 14.1139679 C-20.56473413 14.11425593 -24.99220387 14.10835827 -29.41969419 14.10139394 C-34.04150842 14.09516136 -38.6633232 14.09455668 -43.28514099 14.09336853 C-52.04348237 14.09025493 -60.80181133 14.08204115 -69.56014723 14.07201904 C-79.52854013 14.0608588 -89.49693361 14.05534768 -99.4653312 14.05032361 C-119.97689441 14.03985856 -140.48844642 14.02225857 -161 14 C-162.25541557 10.23375329 -161.37061958 8.62811066 -160 5 C-159.67 5 -159.34 5 -159 5 C-159.33 7.31 -159.66 9.62 -160 12 C-158.7763656 11.99088671 -158.7763656 11.99088671 -157.52801132 11.98158932 C-137.69010436 11.83419478 -117.85216405 11.69245723 -98.0141716 11.5570364 C-88.42072108 11.49141147 -78.82729126 11.4238633 -69.23388672 11.35180664 C-60.87347983 11.28901596 -52.51305661 11.22981431 -44.15259385 11.17494446 C-39.72472877 11.14575838 -35.29689292 11.1147602 -30.86907196 11.07946587 C-26.70282259 11.04631319 -22.53656827 11.01795372 -18.37026024 10.99329376 C-16.83999824 10.98338708 -15.30974649 10.97171889 -13.77951241 10.95816994 C-11.69209792 10.93994953 -9.60473924 10.92803671 -7.51727295 10.91770935 C-5.76402269 10.90526515 -5.76402269 10.90526515 -3.97535324 10.89256954 C-1.45081287 10.98372259 0.60162275 11.25480291 3 12 C2.2575 10.4221875 2.2575 10.4221875 1.5 8.8125 C0.17220212 5.74547391 -0.30715006 3.37865064 0 0 Z " fill="#18171C" transform="translate(170,280)"/>
<path d="M0 0 C4.38232254 0.70430184 7.10282709 1.78427993 9.875 5.3125 C10.81697802 8.70362087 10.34752199 11.17241203 9.5 14.5625 C8 17 8 17 5.5 18.5625 C2.39785544 19.11563975 -0.40068054 19.1436224 -3.5 18.5625 C-6.00160818 16.68629387 -7.11945652 15.32358697 -8.5 12.5625 C-9.06406011 8.4260592 -8.64638597 6.80204067 -6.4375 3.1875 C-3.5 0.5625 -3.5 0.5625 0 0 Z " fill="#F7F2F4" transform="translate(134.5,61.4375)"/>
<path d="M0 0 C3.18100415 3.32559524 3.71917593 6.68968088 4.47265625 11.07421875 C4.73369141 12.02748047 4.73369141 12.02748047 5 13 C5.66 13.33 6.32 13.66 7 14 C7.5625 16.25 7.5625 16.25 8 19 C8.33 20.65 8.66 22.3 9 24 C35.4 24 61.8 24 89 24 C88.505 21.03 88.505 21.03 88 18 C89.73783825 20.60675737 90.50215905 22.01295431 91 25 C89.26858507 26.73141493 87.04249956 26.11977579 84.73521423 26.12442017 C83.60449242 26.11902725 83.60449242 26.11902725 82.45092773 26.11352539 C81.26564987 26.11374443 81.26564987 26.11374443 80.056427 26.1139679 C77.43212178 26.11326857 74.80788664 26.10547527 72.18359375 26.09765625 C70.36898335 26.09579214 68.55437244 26.0943682 66.73976135 26.09336853 C61.9540977 26.08954279 57.1684642 26.07971204 52.3828125 26.06866455 C47.50325936 26.05845163 42.62370136 26.05387117 37.74414062 26.04882812 C28.16274714 26.03808982 18.58137607 26.02101273 9 26 C8.36308477 24.5804411 7.72762815 23.1602277 7.09277344 21.73974609 C6.73874451 20.94893646 6.38471558 20.15812683 6.0199585 19.34335327 C4.62690423 16.14281298 3.42560073 12.91232797 2.25 9.625 C1.82203125 8.44164062 1.3940625 7.25828125 0.953125 6.0390625 C0 3 0 3 0 0 Z " fill="#1C1B21" transform="translate(171,268)"/>
<path d="M0 0 C0.66 0 1.32 0 2 0 C3.04009453 9.37490608 2.86013271 17.74545543 1 27 C0.34 26.34 -0.32 25.68 -1 25 C-0.96712417 22.27130593 -0.43602229 19.7033382 0 17 C-0.66 17 -1.32 17 -2 17 C-1.505 15.515 -1.505 15.515 -1 14 C-0.34 14 0.32 14 1 14 C0.67 9.38 0.34 4.76 0 0 Z " fill="#27272D" transform="translate(188,60)"/>
<path d="M0 0 C3.04335527 3.04335527 3.60305853 4.21121462 4.6875 8.1875 C5.06455078 9.53908203 5.06455078 9.53908203 5.44921875 10.91796875 C5.63097656 11.60503906 5.81273437 12.29210937 6 13 C0.125 9.375 0.125 9.375 -1 6 C-0.34 6 0.32 6 1 6 C0.67 5.34 0.34 4.68 0 4 C-1.32 5.32 -2.64 6.64 -4 8 C-4.66 7.67 -5.32 7.34 -6 7 C-4.02 4.69 -2.04 2.38 0 0 Z " fill="#2D2C36" transform="translate(186,105)"/>
<path d="M0 0 C0.33 0 0.66 0 1 0 C0.67 2.31 0.34 4.62 0 7 C7.59 7 15.18 7 23 7 C23 7.33 23 7.66 23 8 C15.08 8.33 7.16 8.66 -1 9 C-2.25541557 5.23375329 -1.37061958 3.62811066 0 0 Z " fill="#211F26" transform="translate(10,285)"/>
<path d="M0 0 C3.86038436 2.08906965 6.46552611 4.35798817 9.3125 7.6875 C10.00988281 8.49574219 10.70726562 9.30398437 11.42578125 10.13671875 C12.20501953 11.05904297 12.20501953 11.05904297 13 12 C12.67 12.66 12.34 13.32 12 14 C10.5 12.625 10.5 12.625 9 11 C9 10.34 9 9.68 9 9 C7.02 9.33 5.04 9.66 3 10 C2 7 2 7 2 3 C1.34 2.67 0.68 2.34 0 2 C0 1.34 0 0.68 0 0 Z " fill="#2D2C35" transform="translate(168,27)"/>
<path d="M0 0 C4.55384615 -0.36923077 4.55384615 -0.36923077 6.8125 1.5 C7.204375 1.995 7.59625 2.49 8 3 C7.34 4.32 6.68 5.64 6 7 C1.125 6.125 1.125 6.125 0 5 C-0.04063832 3.33382885 -0.042721 1.66611905 0 0 Z " fill="#E0A296" transform="translate(132,67)"/>
<path d="M0 0 C5.02254631 -0.2954439 7.89542386 0.01485372 12 3 C11.67 3.99 11.34 4.98 11 6 C8.9375 6.6875 8.9375 6.6875 7 7 C6.5875 6.21625 6.175 5.4325 5.75 4.625 C3.9607223 1.94108344 2.95011861 1.11901051 0 0 Z " fill="#F3EEF0" transform="translate(131,62)"/>
<path d="M0 0 C0.33 0 0.66 0 1 0 C1 1.98 1 3.96 1 6 C0.34 6 -0.32 6 -1 6 C-1.33 7.65 -1.66 9.3 -2 11 C-1.01 11.33 -0.02 11.66 1 12 C-0.33333333 13.33333333 -1.66666667 14.66666667 -3 16 C-3.66 16 -4.32 16 -5 16 C-5.33 16.66 -5.66 17.32 -6 18 C-5.31583566 13.82423832 -3.98634991 10.11919593 -2.4375 6.1875 C-1.75494141 4.44533203 -1.75494141 4.44533203 -1.05859375 2.66796875 C-0.70925781 1.78753906 -0.35992187 0.90710938 0 0 Z " fill="#2D2B35" transform="translate(22,255)"/>
<path d="M0 0 C1.32 0 2.64 0 4 0 C4.33 0.66 4.66 1.32 5 2 C8.02934491 2.65772428 8.02934491 2.65772428 11 3 C11 3.33 11 3.66 11 4 C4.07 4 -2.86 4 -10 4 C-10 3.67 -10 3.34 -10 3 C-8.72125 2.87625 -7.4425 2.7525 -6.125 2.625 C-2.65209064 2.30957601 -2.65209064 2.30957601 0 0 Z " fill="#2E2D35" transform="translate(135,122)"/>
<path d="M0 0 C2.96404505 2.80804268 5.44499019 5.18315774 7 9 C5.02 7.35 3.04 5.7 1 4 C0.34 5.65 -0.32 7.3 -1 9 C-1.66 9 -2.32 9 -3 9 C-2.44271087 5.65626525 -1.64826111 2.96687001 0 0 Z " fill="#25242A" transform="translate(82,103)"/>
<path d="M0 0 C3.85025879 0.60355408 6.86101159 1.76772603 10.3125 3.5625 C11.19550781 4.01753906 12.07851562 4.47257812 12.98828125 4.94140625 C13.65214844 5.29074219 14.31601563 5.64007813 15 6 C14.01 6.66 13.02 7.32 12 8 C11.38125 7.2575 11.38125 7.2575 10.75 6.5 C8.87797662 4.56613908 8.87797662 4.56613908 5 5 C2.8125 4.1875 2.8125 4.1875 1 3 C0.67 2.01 0.34 1.02 0 0 Z " fill="#2C2A32" transform="translate(150,18)"/>
<path d="M0 0 C1.79378179 2.69067269 2.97313958 5.08578257 4.1875 8.0625 C4.55230469 8.94035156 4.91710937 9.81820312 5.29296875 10.72265625 C6 13 6 13 5 15 C2.4375 12.75 2.4375 12.75 0 10 C0.25 8.0625 0.25 8.0625 1 6 C0.72949547 3.99053778 0.40632091 1.98645776 0 0 Z " fill="#28262E" transform="translate(202,143)"/>
<path d="M0 0 C3.24220373 2.41086944 4.74914292 3.74218142 5.5546875 7.78125 C5.78808079 10.52538928 5.94696043 13.24676404 6 16 C4.08614468 13.12921701 3.03567048 10.66588344 1.875 7.4375 C1.52179688 6.46683594 1.16859375 5.49617187 0.8046875 4.49609375 C0 2 0 2 0 0 Z " fill="#282730" transform="translate(146,200)"/>
<path d="M0 0 C2 3 2 3 2 7 C2.66 7.33 3.32 7.66 4 8 C4.5625 9.9375 4.5625 9.9375 5 12 C5.33 12.66 5.66 13.32 6 14 C5.34 14.66 4.68 15.32 4 16 C3.32320342 14.274773 2.65898 12.54461061 2 10.8125 C1.443125 9.36810547 1.443125 9.36810547 0.875 7.89453125 C0.02363228 5.07817642 -0.17072647 2.91835561 0 0 Z " fill="#2E2C34" transform="translate(81,79)"/>
<path d="M0 0 C1.26493447 3.79480342 0.89988258 6.12358274 0 10 C-2.0625 11.9375 -2.0625 11.9375 -4 13 C-2.93204565 8.49933525 -1.85961414 4.2505466 0 0 Z " fill="#2E2C36" transform="translate(85,47)"/>
<path d="M0 0 C0.33 0 0.66 0 1 0 C1.19551338 1.60320974 1.38111983 3.20762986 1.5625 4.8125 C1.66691406 5.70582031 1.77132812 6.59914062 1.87890625 7.51953125 C2 10 2 10 1 13 C0.49384702 11.73160474 -0.00469099 10.46016898 -0.5 9.1875 C-0.7784375 8.47980469 -1.056875 7.77210938 -1.34375 7.04296875 C-2 5 -2 5 -2 2 C-1.34 2 -0.68 2 0 2 C0 1.34 0 0.68 0 0 Z " fill="#2E2D36" transform="translate(165,244)"/>
<path d="M0 0 C1.39195915 4.17587745 -0.17676781 6.13474776 -2 10 C-2.33 9.01 -2.66 8.02 -3 7 C-3.99 6.67 -4.98 6.34 -6 6 C-6.33 6.66 -6.66 7.32 -7 8 C-7.33 7.01 -7.66 6.02 -8 5 C-7.34 4.34 -6.68 3.68 -6 3 C-6 3.66 -6 4.32 -6 5 C-4.05000871 4.80528889 -4.05000871 4.80528889 -2 4 C-0.71563266 2.0162233 -0.71563266 2.0162233 0 0 Z " fill="#2B2A32" transform="translate(121,199)"/>
<path d="M0 0 C0.12375 0.5775 0.2475 1.155 0.375 1.75 C1.00648824 4.02335767 1.88858191 5.9253529 3 8 C2.02149805 9.02104551 1.02019573 10.0206121 0 11 C-0.33 11 -0.66 11 -1 11 C-1.125 3.375 -1.125 3.375 0 0 Z " fill="#2F2D3A" transform="translate(12,280)"/>
<path d="M0 0 C0.99 0.99 1.98 1.98 3 3 C3 3.66 3 4.32 3 5 C1.68 5 0.36 5 -1 5 C-2.7511573 6.4166747 -2.7511573 6.4166747 -4 8 C-4.66 7.67 -5.32 7.34 -6 7 C-4.02 4.69 -2.04 2.38 0 0 Z " fill="#24212C" transform="translate(186,105)"/>
<path d="M0 0 C0.33 0.99 0.66 1.98 1 3 C1.66 3.33 2.32 3.66 3 4 C2.67 4.66 2.34 5.32 2 6 C1.01 6 0.02 6 -1 6 C-1.33 7.32 -1.66 8.64 -2 10 C-3.39195915 5.82412255 -1.82323219 3.86525224 0 0 Z " fill="#2C2C34" transform="translate(37,217)"/>
<path d="M0 0 C2 3 2 3 2 5 C1.34 5 0.68 5 0 5 C-0.66 6.65 -1.32 8.3 -2 10 C-3.39195915 5.82412255 -1.82323219 3.86525224 0 0 Z " fill="#2B2A33" transform="translate(66,143)"/>
</svg>
